<?xml version="1.0" standalone="no"?><!DOCTYPE svg PUBLIC "-//W3C//DTD SVG 1.1//EN" "http://www.w3.org/Graphics/SVG/1.1/DTD/svg11.dtd"><svg t="1582890979561" class="icon" viewBox="0 0 1029 1024" version="1.1" xmlns="http://www.w3.org/2000/svg" p-id="1526" data-spm-anchor-id="a313x.7781069.0.i5" xmlns:xlink="http://www.w3.org/1999/xlink" width="200.9765625" height="200"><defs><style type="text/css"></style></defs><path d="M1024.102585 396.592266l-210.298538-288.41675a26.569425 26.569425 0 0 0-20.106592-11.181727H232.559407a36.725306 36.725306 0 0 0-24.620317 17.849729c-26.825887 44.726908-196.757363 297.495492-196.757363 297.495492L0 430.137447l13.438589 15.387698 456.142657 532.465638a39.70026 39.70026 0 0 0 11.181727 8.924865c6.719295 4.462432 33.545181 11.181727 49.189341 0 4.462432-2.256862 6.719295-6.719295 11.181727-8.924865l429.31677-440.498497a23.286716 23.286716 0 0 0 0-35.904628 20.978561 20.978561 0 0 0-33.545181 0l-371.202564 382.384292L726.709677 441.114005h263.847726c2.256862 0 20.157884 0 24.620317-4.462432l2.20557-2.256863c13.438589-6.668002 15.644159-22.363454 6.719295-38.007613z m-225.686236-248.203566L697.575636 385.410539H335.400521L246.203166 148.3887zM210.298537 200.040072l75.912643 187.627329H84.991384zM73.809657 436.856742h225.686236l145.31116 435.984773z m431.522341 465.067522L351.04468 436.856742h322.013224zM748.867962 387.667401l78.27209-174.393909L952.54979 389.821679H748.867962z m0 0" p-id="1527" data-spm-anchor-id="a313x.7781069.0.i2" class="" fill="#f3ca7e"></path><path d="M637.050691 235.9447l-244.715688-1.025846a25.953917 25.953917 0 0 1 0-51.856542l244.561811 0.769385a25.953917 25.953917 0 0 1 0 51.856542z" fill="#e89abe" p-id="1528" data-spm-anchor-id="a313x.7781069.0.i3" class="selected"></path></svg>